
    <svg
      width="30"
      height="30"
      viewBox="0 0 22 30"
    
      xmlns="http://www.w3.org/2000/svg"
    >
      <path
        d="M3.86525 25.725L4.29725 26.415C4.95913 27.4672 5.86692 28.3427 6.9424 28.966C8.01788 29.5894 9.22879 29.9418 10.4708 29.9931C11.7128 30.0444 12.9486 29.7929 14.0718 29.2603C15.195 28.7278 16.1719 27.9301 16.9183 26.936L17.6753 25.927C18.6565 24.6138 19.1923 23.0213 19.2043 21.382L21.0043 19.882C21.2687 19.6631 21.4849 19.3916 21.6391 19.0849C21.7933 18.7782 21.8822 18.4428 21.9001 18.0999C21.9181 17.7571 21.8647 17.4142 21.7434 17.093C21.622 16.7719 21.4354 16.4794 21.1953 16.234C21.2377 16.1589 21.2604 16.0743 21.2613 15.988V12.891C21.2598 11.1537 20.8189 9.44504 19.9797 7.92392C19.1405 6.4028 17.9301 5.11867 16.4613 4.191L15.8903 3.057C15.4325 2.13931 14.7281 1.36735 13.856 0.827779C12.984 0.288208 11.9788 0.00238037 10.9533 0.00238037C9.92775 0.00238037 8.92254 0.288208 8.05047 0.827779C7.17839 1.36735 6.47396 2.13931 6.01625 3.057L5.59325 3.897C5.55764 3.97014 5.53982 4.05066 5.54125 4.132C4.03844 5.04591 2.79749 6.33291 1.93892 7.868C1.08034 9.4031 0.633318 11.1341 0.641251 12.893V15.987C0.643377 16.0727 0.667481 16.1563 0.711251 16.23C0.470354 16.4752 0.283033 16.7678 0.161167 17.0892C0.0393004 17.4106 -0.0144521 17.7538 0.00331777 18.097C0.0210876 18.4403 0.109992 18.7761 0.264393 19.0832C0.418795 19.3903 0.635324 19.662 0.900251 19.881L2.70025 21.381V21.674C2.7007 23.1069 3.10443 24.5108 3.86525 25.725ZM18.1753 15.985V21.344C18.1723 22.7737 17.7087 24.1645 16.8533 25.31L16.0973 26.319C15.4533 27.182 14.6086 27.875 13.6364 28.3379C12.6642 28.8008 11.5937 29.0196 10.5178 28.9754C9.44193 28.9311 8.39306 28.6252 7.4621 28.0841C6.53114 27.543 5.74618 26.783 5.17525 25.87L4.74325 25.179C4.08692 24.1296 3.73868 22.9168 3.73825 21.679V15.989C3.73514 15.9674 3.7308 15.9461 3.72525 15.925C4.47325 15.464 5.19925 14.972 5.89825 14.443H13.6653L18.1733 15.769L18.1753 15.985ZM7.17525 13.407C7.48825 13.138 7.79725 12.864 8.09725 12.582C8.70274 12.905 9.3393 13.166 9.99725 13.361L10.1553 13.407H7.17525ZM20.7723 17.42C20.8875 17.7067 20.9088 18.0227 20.8329 18.3223C20.7571 18.6219 20.5881 18.8896 20.3503 19.087L19.2063 20.04V16.5H19.4123C19.705 16.4988 19.9914 16.586 20.2338 16.7501C20.4763 16.9143 20.6636 17.1477 20.7713 17.42H20.7723ZM10.9573 1.032C11.7598 1.03066 12.5479 1.24606 13.2382 1.65547C13.9285 2.06487 14.4955 2.65309 14.8793 3.358C14.7523 3.306 14.6213 3.264 14.4923 3.216C14.4923 3.216 14.4853 3.21 14.4813 3.209L14.4233 3.191C14.1799 3.10367 13.9326 3.02533 13.6813 2.956C13.6183 2.939 13.5563 2.924 13.4933 2.908C13.2703 2.851 13.0463 2.798 12.8173 2.756C12.6883 2.732 12.5593 2.716 12.4283 2.696C12.2573 2.672 12.0883 2.644 11.9123 2.628C11.5963 2.598 11.2773 2.579 10.9583 2.579C9.61027 2.58285 8.27611 2.85091 7.03125 3.368C7.41374 2.66019 7.98084 2.06923 8.67229 1.65792C9.36374 1.2466 10.1537 1.0303 10.9583 1.032H10.9573ZM10.9573 3.61C11.2473 3.61 11.5323 3.628 11.8153 3.653C11.9763 3.669 12.1373 3.694 12.2983 3.718C12.4073 3.734 12.5163 3.748 12.6233 3.77C12.8363 3.81 13.0483 3.858 13.2593 3.913L13.3933 3.948C13.6279 4.01467 13.8613 4.08833 14.0933 4.169C15.8897 4.81503 17.4435 5.99896 18.5431 7.55963C19.6426 9.1203 20.2345 10.9819 20.2383 12.891V15.291L10.2943 12.366C8.88442 11.9523 7.59573 11.2034 6.53832 10.1832C5.48092 9.16309 4.68625 7.90209 4.22225 6.508C5.08585 5.58842 6.12945 4.8564 7.28812 4.35749C8.44679 3.85859 9.69574 3.60346 10.9573 3.608V3.61ZM1.67625 12.891C1.67621 10.926 2.30292 9.0123 3.46525 7.428C4.21622 9.2963 5.50766 10.898 7.17425 12.028C6.59358 12.5613 5.98992 13.0683 5.36325 13.549C5.35825 13.554 5.35225 13.557 5.34725 13.563C4.43553 14.2607 3.47915 14.8981 2.48425 15.471C2.20947 15.4741 1.9371 15.5227 1.67825 15.615L1.67625 12.891ZM1.56425 19.091C1.33166 18.8989 1.16414 18.6396 1.08463 18.3486C1.00512 18.0576 1.01751 17.7491 1.1201 17.4655C1.22269 17.1818 1.41046 16.9367 1.65771 16.7639C1.90496 16.5911 2.19959 16.4989 2.50125 16.5H2.70725V20.04L1.56425 19.091Z"
      
      />
      <path
        d="M10.4413 18.563C10.4413 17.9511 10.2598 17.3529 9.91986 16.8441C9.57989 16.3353 9.09668 15.9387 8.53132 15.7045C7.96597 15.4703 7.34386 15.4091 6.74369 15.5284C6.14351 15.6478 5.59221 15.9425 5.15951 16.3752C4.72681 16.8079 4.43213 17.3592 4.31275 17.9594C4.19336 18.5596 4.25464 19.1817 4.48882 19.747C4.723 20.3124 5.11956 20.7956 5.62837 21.1356C6.13717 21.4755 6.73536 21.657 7.3473 21.657C8.16788 21.657 8.95485 21.331 9.53509 20.7508C10.1153 20.1705 10.4413 19.3836 10.4413 18.563ZM7.3473 20.625C6.93947 20.625 6.54081 20.5041 6.20172 20.2775C5.86262 20.0509 5.59832 19.7289 5.44226 19.3521C5.28619 18.9753 5.24535 18.5607 5.32492 18.1607C5.40448 17.7607 5.60087 17.3933 5.88925 17.1049C6.17762 16.8166 6.54504 16.6202 6.94502 16.5406C7.34501 16.461 7.75961 16.5019 8.13639 16.6579C8.51317 16.814 8.83521 17.0783 9.06179 17.4174C9.28836 17.7565 9.4093 18.1552 9.4093 18.563C9.4093 19.1097 9.19219 19.634 8.8057 20.0207C8.41922 20.4074 7.895 20.6247 7.3483 20.625H7.3473Z"
      
      />
      <path d="M6.83228 17.016H7.86327V18.047H6.83228V17.016Z" />
      <path d="M6.83228 19.078H7.86327V20.109H6.83228V19.078Z" />
      <path d="M7.86829 18.047H8.89929V19.078H7.86829V18.047Z" />
      <path d="M5.8053 18.047H6.8363V19.078H5.8053V18.047Z" />
      <path
        d="M11.4773 18.563C11.4773 19.1749 11.6588 19.7731 11.9987 20.2819C12.3387 20.7907 12.8219 21.1873 13.3873 21.4215C13.9526 21.6557 14.5747 21.7169 15.1749 21.5975C15.7751 21.4782 16.3264 21.1835 16.7591 20.7508C17.1918 20.3181 17.4865 19.7668 17.6059 19.1666C17.7252 18.5664 17.664 17.9443 17.4298 17.379C17.1956 16.8136 16.799 16.3304 16.2902 15.9904C15.7814 15.6504 15.1832 15.469 14.5713 15.469C13.7507 15.469 12.9638 15.795 12.3835 16.3752C11.8033 16.9554 11.4773 17.7424 11.4773 18.563ZM14.5713 16.501C14.9791 16.501 15.3778 16.6219 15.7169 16.8485C16.056 17.0751 16.3203 17.3971 16.4763 17.7739C16.6324 18.1507 16.6732 18.5653 16.5937 18.9653C16.5141 19.3653 16.3177 19.7327 16.0294 20.021C15.741 20.3094 15.3736 20.5058 14.9736 20.5854C14.5736 20.6649 14.159 20.6241 13.7822 20.468C13.4054 20.312 13.0834 20.0477 12.8568 19.7086C12.6302 19.3695 12.5093 18.9708 12.5093 18.563C12.509 18.0168 12.7255 17.4928 13.1111 17.106C13.4968 16.7193 14.0201 16.5013 14.5663 16.5L14.5713 16.501Z"
      
      />
      <path d="M14.0503 17.016H15.0813V18.047H14.0503V17.016Z" />
      <path d="M14.0503 19.078H15.0813V20.109H14.0503V19.078Z" />
      <path d="M15.0863 18.047H16.1173V19.078H15.0863V18.047Z" />
      <path d="M13.0243 18.047H14.0553V19.078H13.0243V18.047Z" />
      <path
        d="M13.1703 24.385C12.5828 24.9712 11.7867 25.3004 10.9568 25.3004C10.1269 25.3004 9.33081 24.9712 8.74329 24.385C8.64523 24.2954 8.51639 24.247 8.38358 24.25C8.25076 24.253 8.12422 24.3071 8.03028 24.401C7.93635 24.4949 7.88226 24.6215 7.87928 24.7543C7.8763 24.8871 7.92466 25.016 8.01429 25.114C8.7953 25.8933 9.85352 26.3309 10.9568 26.3309C12.0601 26.3309 13.1183 25.8933 13.8993 25.114C13.9889 25.016 14.0373 24.8871 14.0343 24.7543C14.0313 24.6215 13.9772 24.4949 13.8833 24.401C13.7894 24.3071 13.6628 24.253 13.53 24.25C13.3972 24.247 13.2683 24.2954 13.1703 24.385Z"
      
      />
      <path
        d="M9.6952 23.666L10.7262 24.182C10.8481 24.2394 10.9877 24.2468 11.115 24.2027C11.2424 24.1585 11.3474 24.0663 11.4076 23.9457C11.4678 23.8251 11.4785 23.6858 11.4373 23.5575C11.3961 23.4291 11.3064 23.322 11.1872 23.259L10.5732 22.952L11.4392 20.674C11.4665 20.6101 11.4806 20.5412 11.4807 20.4717C11.4807 20.4022 11.4667 20.3334 11.4395 20.2694C11.4123 20.2054 11.3724 20.1475 11.3223 20.0994C11.2722 20.0512 11.2128 20.0136 11.1478 19.9889C11.0828 19.9642 11.0135 19.953 10.944 19.9557C10.8745 19.9585 10.8063 19.9753 10.7435 20.0051C10.6807 20.0349 10.6245 20.0771 10.5784 20.1292C10.5323 20.1812 10.4972 20.242 10.4752 20.308L9.44421 23.021C9.39869 23.1405 9.39915 23.2727 9.44552 23.3918C9.4919 23.511 9.58088 23.6087 9.6952 23.666Z"
      
      />
    </svg>
