
    <svg
      width="30"
      height="34"
      viewBox="0 0 28 34"
      xmlns="http://www.w3.org/2000/svg"
    >
      <path
        d="M27.1863 26.4977C27.2308 26.5182 27.2789 26.5289 27.327 26.5289C27.3955 26.5289 27.4623 26.5102 27.5211 26.4755C27.6208 26.4149 27.684 26.3081 27.6884 26.1915V19.5367C27.684 19.4308 27.6315 19.3319 27.5451 19.2696C26.0966 18.1506 24.4639 16.857 24.301 16.6647C23.7 15.9311 23.384 14.5556 23.108 13.3422C22.8098 12.0335 22.573 10.999 21.9969 10.7026C21.6515 10.5245 21.2562 10.4159 20.909 10.3206C20.5173 10.2129 20.1122 10.1016 19.9591 9.92982C19.2166 9.09652 18.4715 8.86416 18.0931 8.80095C18.0664 8.59797 18.1047 8.26056 18.1341 7.99882C18.1857 7.5439 18.24 7.07383 18.1056 6.72307C17.9551 6.32601 17.5643 5.66988 16.6892 5.74021C16.6464 5.74377 16.626 5.7509 16.5583 5.75891V4.94075C16.5583 4.26237 16.0624 3.7104 15.4437 3.7104C15.2852 3.7104 15.1285 3.74779 14.9879 3.8199C14.857 3.20829 14.3611 2.75158 13.7673 2.75158C13.5403 2.75158 13.3177 2.81924 13.1272 2.94388C12.967 2.27974 12.4186 1.7892 11.7687 1.7892C11.4464 1.79098 11.1366 1.91117 10.8962 2.12572C10.7992 1.90227 10.6612 1.69929 10.4893 1.52657C10.1315 1.15622 9.63735 0.948789 9.12189 0.949679C8.04911 0.95235 7.18199 1.82303 7.18377 2.89581C7.18377 2.89848 7.18377 2.90115 7.18377 2.90293L7.20158 7.51274C6.88286 10.1693 7.32622 13.6031 7.87017 16.9389L5.12458 19.2509C4.51564 19.7646 4.10523 20.4759 3.96456 21.2603C3.96456 21.2647 3.96278 21.2692 3.96189 21.2736C3.95833 21.2985 3.61113 23.8055 3.37432 24.5881C3.22475 25.0822 1.50742 29.5567 0.620717 31.8536C0.553946 32.0272 0.640302 32.2221 0.813905 32.2898C0.826369 32.2942 0.838832 32.2987 0.851296 32.3023L7.52742 34C7.71348 34 7.86483 33.8487 7.86483 33.6626C7.86483 33.6546 7.86483 33.6466 7.86483 33.6394C7.78471 32.4892 7.77491 31.1298 7.89688 30.8449C7.94228 30.7389 8.11232 30.6303 8.30907 30.5039C8.73195 30.2333 9.31062 29.8629 9.63379 28.9629C9.69433 28.7652 9.72638 28.5605 9.72994 28.3548C10.4893 29.7142 11.7366 30.5377 13.1521 30.5377C14.3763 30.5377 15.4713 29.9386 16.2351 28.8507C16.9269 27.866 17.3088 26.56 17.3088 25.1739C17.3159 24.9673 17.4762 22.2066 17.7156 20.3575C17.7922 20.427 17.8706 20.4982 17.9533 20.5712C18.0335 21.0137 18.1946 21.4374 18.4288 21.8211C18.8267 22.4799 19.6315 23.347 21.2073 23.7459L27.1845 26.4968L27.1863 26.4977ZM9.23139 26.7399C9.08895 26.9642 9.07737 27.3159 9.06847 27.8705C9.06402 28.1821 9.05779 28.5711 8.99903 28.7358C8.75332 29.4196 8.32421 29.6947 7.94584 29.9368C7.66719 30.1149 7.40456 30.2831 7.27725 30.5787C7.08228 31.0318 7.12324 32.4402 7.16419 33.2219L1.38724 31.7432C1.92674 30.3437 3.84972 25.3466 4.02065 24.7839C4.26993 23.9631 4.60556 21.5487 4.63048 21.3724C4.74444 20.7457 5.07206 20.1777 5.55903 19.7673L7.9957 17.7134C8.12034 18.4568 8.24853 19.1859 8.35448 19.7886C8.18355 20.0459 7.9957 20.2925 7.79183 20.5249C7.53899 20.3887 7.12413 20.1697 6.83835 20.0513C6.66653 19.9783 6.46889 20.0584 6.39589 20.2302C6.32288 20.402 6.40301 20.5997 6.57483 20.6727C6.57661 20.6727 6.5775 20.6736 6.57928 20.6745C6.97011 20.8374 7.67609 21.2309 7.68321 21.2353C7.80429 21.303 7.95475 21.2896 8.06247 21.2015C8.30462 21.0021 8.6358 20.5739 8.98746 20.0557C9.87862 18.739 10.955 16.7715 11.3511 16.0344C11.6155 15.5421 12.0918 15.1325 12.5601 15.3302C13.0676 15.5438 13.1067 16.2498 12.9296 16.8152C12.7747 17.3092 12.439 17.9841 12.0838 18.6981C11.4215 20.0299 10.7368 21.4072 10.752 22.4221C10.7769 24.1483 10.3789 24.9353 9.23406 26.7416L9.23139 26.7399ZM16.6358 25.1694C16.6358 27.445 15.4152 29.8638 13.153 29.8638C11.6698 29.8638 10.3985 28.7341 9.88129 26.9731C10.9959 25.2033 11.4499 24.2596 11.4232 22.4096C11.4108 21.5585 12.0883 20.1964 12.6847 18.9954C13.0515 18.2574 13.3987 17.5594 13.5697 17.0155C13.9498 15.8065 13.4468 14.9714 12.8192 14.707C12.2004 14.4461 11.3217 14.6562 10.7546 15.7139C10.1831 16.7786 9.49847 17.9903 8.8922 18.9598C8.78626 18.3535 8.67052 17.6796 8.56191 17.019C8.01261 13.6743 7.56392 10.2174 7.87907 7.59375C8.01706 6.4453 7.85771 3.14508 7.85771 2.90916V2.90293C7.85058 2.20318 8.41234 1.63073 9.11209 1.62361C9.11477 1.62361 9.11833 1.62361 9.121 1.62361C9.4593 1.62361 9.78425 1.75893 10.0202 2.00109C10.2597 2.24235 10.3923 2.56997 10.3878 2.90916L10.3674 6.45599C10.3638 6.64205 10.5116 6.79518 10.6977 6.79874C10.8837 6.8023 11.0369 6.65452 11.0404 6.46845C11.0404 6.46578 11.0404 6.46222 11.0404 6.45955L11.0573 3.15487C11.1303 2.75247 11.4321 2.46135 11.7758 2.46135C12.1791 2.46135 12.5129 2.85663 12.5129 3.34272V6.01085C12.5129 6.19692 12.6643 6.34827 12.8503 6.34827C13.0364 6.34827 13.1877 6.19692 13.1877 6.01085V4.13595C13.1877 3.75046 13.445 3.42552 13.7664 3.42552C14.0878 3.42552 14.3344 3.74423 14.3344 4.13595V6.43106C14.3344 6.61713 14.4858 6.76847 14.6718 6.76847C14.8579 6.76847 15.0092 6.61713 15.0092 6.43106V4.93986C15.0092 4.62827 15.1989 4.38433 15.4366 4.38433C15.6743 4.38433 15.8861 4.63361 15.8861 4.93986V6.89667C15.8861 7.08274 16.0375 7.23408 16.2236 7.23408C16.4096 7.23408 16.561 7.08274 16.561 6.89667V6.48537C16.6171 6.44887 16.6794 6.42394 16.7453 6.41236C17.0925 6.38388 17.3186 6.55392 17.4735 6.96255C17.5492 7.16019 17.5047 7.56437 17.4637 7.92137C17.4058 8.42704 17.3524 8.90601 17.5349 9.24609C17.5447 9.27013 17.5572 9.29238 17.5723 9.31286C18.0326 10.0687 18.2151 11.226 18.127 12.8446C18.0718 12.9176 18.0166 12.9906 17.9623 13.0662C17.4227 12.6469 16.7666 12.1012 16.2538 11.6747C15.5835 11.1174 14.8908 10.5414 14.3754 10.1542C13.5928 9.56569 12.642 9.53721 12.0633 10.0838C11.49 10.626 11.4882 11.5278 12.058 12.3816C12.4631 12.9888 13.0391 13.6378 13.5964 14.2663C14.3869 15.1575 15.2042 16.0789 15.5069 16.8454C15.5781 17.0324 15.6378 17.2238 15.6858 17.4179C15.8488 18.0277 16.0179 18.6544 17.1174 19.7797C16.8307 21.6564 16.6358 25.0626 16.6358 25.1694ZM18.7884 21.0306C19.6377 21.4401 21.0915 22.0838 22.005 22.1318C22.0112 22.1318 22.0165 22.1345 22.0219 22.1345C22.2079 22.1345 22.3584 21.984 22.3584 21.798C22.3584 21.6181 22.2177 21.4704 22.0379 21.4615C20.9393 21.4036 18.7599 20.2774 18.4635 20.1216C16.6909 18.5672 16.5173 17.9244 16.3348 17.2443C16.2805 17.0253 16.2129 16.8098 16.1328 16.5988C15.7864 15.7219 14.9291 14.7551 14.0994 13.8203C13.5572 13.2087 12.9963 12.5766 12.6171 12.0086C12.2334 11.4335 12.1978 10.8842 12.5245 10.5753C12.9153 10.2058 13.5465 10.3785 13.9676 10.6946C14.4697 11.072 15.1561 11.6427 15.8203 12.1947C17.6551 13.7197 18.4421 14.3447 18.8365 14.382C19.0217 14.3981 19.1855 14.261 19.2024 14.0758C19.2184 13.896 19.0893 13.7348 18.9104 13.7117C18.7644 13.6494 18.6264 13.5692 18.5009 13.4713C18.9113 12.8989 19.3938 12.3825 19.9351 11.9329C20.0793 11.8154 20.1007 11.6026 19.9832 11.4584C19.8656 11.3142 19.6529 11.2928 19.5086 11.4103C19.5069 11.4121 19.5042 11.4139 19.5024 11.4157C19.2594 11.6195 19.0341 11.8279 18.8214 12.0442C18.8187 11.0587 18.7003 10.2637 18.459 9.61644C18.8401 9.79895 19.1784 10.0589 19.4534 10.3794C19.7392 10.6999 20.22 10.8325 20.7283 10.9723C21.0595 11.0631 21.4031 11.1575 21.6854 11.3035C21.9818 11.4566 22.2391 12.5864 22.4465 13.4936C22.7394 14.78 23.0831 16.2374 23.7846 17.0938C24.0321 17.3956 26.2711 19.1468 27.0127 19.7032V25.6377L21.4076 23.0871C19.7339 22.6731 19.0564 21.6974 18.7866 21.0324L18.7884 21.0306Z"
      />
      <path
        d="M21.1992 4.48136C21.1788 3.94453 21.039 3.42016 20.7897 2.94386C20.7016 2.78005 20.4968 2.71863 20.333 2.80676C20.1719 2.89401 20.1096 3.09432 20.1923 3.25724C20.3944 3.64362 20.5084 4.06916 20.5244 4.50539C20.5306 4.68701 20.6802 4.83034 20.8609 4.83034H20.8734C21.0595 4.82322 21.2046 4.66742 21.1983 4.48136H21.1992Z"
      />
      <path
        d="M19.7258 7.41303C19.8059 7.41303 19.8834 7.38454 19.9439 7.3329C20.3543 6.98392 20.6802 6.5468 20.8965 6.05359L20.8992 6.04647C20.974 5.87553 20.8965 5.677 20.7256 5.60222C20.5547 5.52744 20.3561 5.60489 20.2813 5.77582L20.2787 5.78206C20.1033 6.18179 19.8389 6.537 19.5068 6.82011C19.3653 6.94118 19.3483 7.15396 19.4685 7.29551C19.5326 7.37118 19.627 7.41392 19.7258 7.41392V7.41303Z"
      />
      <path
        d="M16.7069 1.15089C16.1879 1.28977 15.7072 1.54172 15.2976 1.88981C15.1525 2.00733 15.1303 2.21921 15.2478 2.36432C15.3653 2.50944 15.5772 2.53169 15.7223 2.41418C15.7267 2.41062 15.7312 2.40706 15.7356 2.40261C16.0677 2.12039 16.4585 1.91563 16.8796 1.80257C17.0595 1.75449 17.1672 1.57021 17.1191 1.39037C17.071 1.21054 16.8868 1.10281 16.7069 1.15089Z"
      />
      <path
        d="M19.8246 2.20675C19.935 2.05719 19.9039 1.84619 19.7543 1.73491C19.3225 1.41619 18.8249 1.19808 18.2978 1.0957C18.1144 1.06187 17.939 1.18205 17.9043 1.36545C17.8705 1.54706 17.9889 1.72155 18.1696 1.75806C18.5978 1.84085 19.0011 2.0189 19.3519 2.27708C19.5015 2.38837 19.7125 2.35632 19.8237 2.20675H19.8246Z"
      />
      <path
        d="M20.7861 28.3406C20.6855 27.8135 20.4683 27.315 20.1505 26.8823C20.0383 26.7336 19.8264 26.7042 19.6777 26.8164C19.5317 26.9268 19.4997 27.1342 19.6074 27.2829C19.8656 27.6346 20.0419 28.0388 20.1238 28.467C20.154 28.6263 20.2929 28.7412 20.4549 28.7412C20.4763 28.7412 20.4977 28.7394 20.5182 28.7349C20.7015 28.7002 20.8208 28.5239 20.7861 28.3406Z"
      />
      <path
        d="M20.4887 29.5184C20.3089 29.4703 20.1237 29.5772 20.0757 29.757C19.9617 30.1781 19.756 30.568 19.4729 30.8992C19.3519 31.0408 19.3679 31.2535 19.5094 31.3746C19.651 31.4957 19.8638 31.4797 19.9848 31.3381C20.3338 30.9304 20.5867 30.4496 20.7264 29.9315C20.7745 29.7517 20.6686 29.5665 20.4887 29.5184Z"
      />
      <path
        d="M15.9119 31.5722C15.5255 31.3684 15.1908 31.0799 14.9317 30.7274C14.8222 30.576 14.6121 30.5422 14.4607 30.6517C14.3094 30.7612 14.2756 30.9713 14.3851 31.1226C14.386 31.1244 14.3868 31.1253 14.3886 31.1271C14.7073 31.5615 15.1204 31.9177 15.5967 32.1687L15.6038 32.1723C15.7676 32.2604 15.9724 32.199 16.0605 32.0343C16.1487 31.8696 16.0873 31.6657 15.9226 31.5776C15.9208 31.5776 15.9199 31.5758 15.9181 31.5749L15.9119 31.5722Z"
      />
      <path
        d="M18.435 31.6666C18.0352 31.8411 17.6017 31.9239 17.1663 31.9088C16.9803 31.9025 16.8236 32.0477 16.8173 32.2337C16.8111 32.4198 16.9562 32.5765 17.1423 32.5827C17.1832 32.5845 17.2251 32.5845 17.266 32.5845C17.761 32.5845 18.2507 32.4821 18.7047 32.2845C18.8747 32.2079 18.9495 32.0076 18.8721 31.8376C18.7964 31.6711 18.6032 31.5954 18.435 31.6657V31.6666Z"
      />
    </svg>
