
        <svg width="22" height="22" viewBox="0 0 22 22" fill="auto" xmlns="http://www.w3.org/2000/svg">
            <path fillRule="evenodd" clipRule="evenodd" d="M10.2991 15.6049C10.6878 15.2647 10.6878 14.7132 10.2991 14.373L7.02095 11.5047H17.4348C17.9846 11.5047 18.4303 11.1147 18.4303 10.6336C18.4303 10.1525 17.9846 9.76253 17.4348 9.76253H7.02089L10.2991 6.89413C10.6878 6.55395 10.6878 6.00241 10.2991 5.66224C9.91028 5.32206 9.27995 5.32206 8.89118 5.66224L3.91359 10.0176C3.52482 10.3578 3.52482 10.9093 3.91359 11.2495L8.89118 15.6049C9.27995 15.9451 9.91028 15.9451 10.2991 15.6049Z" fill="auto"/>
            <!-- <path fillRule="evenodd" clipRule="evenodd" d="M10.2991 15.6049C10.6878 15.2647 10.6878 14.7132 10.2991 14.373L7.02095 11.5047H17.4348C17.9846 11.5047 18.4303 11.1147 18.4303 10.6336C18.4303 10.1525 17.9846 9.76253 17.4348 9.76253H7.02089L10.2991 6.89413C10.6878 6.55395 10.6878 6.00241 10.2991 5.66224C9.91028 5.32206 9.27995 5.32206 8.89118 5.66224L3.91359 10.0176C3.52482 10.3578 3.52482 10.9093 3.91359 11.2495L8.89118 15.6049C9.27995 15.9451 9.91028 15.9451 10.2991 15.6049Z" fill="#4F4F4F" /> -->
        </svg>
