
    <svg
      width="30"
      height="30"
      viewBox="0 0 30 30"
      xmlns="http://www.w3.org/2000/svg"
    >
      <path
        d="M29.9931 19.499C29.9968 18.8113 29.7619 18.1436 29.3285 17.6097C28.895 17.0758 28.2898 16.7087 27.6161 16.571L26.0831 14.112C25.6708 13.464 25.1014 12.9307 24.4277 12.5618C23.7541 12.1929 22.9981 12.0004 22.2301 12.002H19.7531C19.7717 11.164 19.6727 10.3275 19.4591 9.51701C19.8908 9.31125 20.2237 8.94327 20.3853 8.49319C20.5469 8.04311 20.5242 7.5474 20.3221 7.11401L19.9481 6.32101C19.7646 5.93203 19.4484 5.62121 19.0564 5.44435C18.6644 5.26748 18.2221 5.23616 17.8091 5.35601C17.3685 4.32476 16.6236 3.45257 15.6741 2.85601C15.0349 2.4488 14.3169 2.18129 13.5671 2.07101C13.4941 2.05901 13.4081 2.05701 13.3311 2.04801C13.196 1.64327 12.976 1.2721 12.6857 0.959421C12.3954 0.646742 12.0416 0.39979 11.648 0.235146C11.2543 0.0705012 10.83 -0.00802516 10.4036 0.0048389C9.97711 0.017703 9.55833 0.12166 9.17535 0.309729C8.79237 0.497799 8.45407 0.765629 8.18314 1.09524C7.91222 1.42484 7.71494 1.8086 7.60457 2.22074C7.4942 2.63288 7.47328 3.06387 7.54322 3.48476C7.61315 3.90565 7.77233 4.30671 8.01006 4.66101C7.59979 5.32035 7.33427 6.05933 7.23106 6.82901C7.19736 7.07188 7.18066 7.31681 7.18106 7.56201C7.17791 8.43329 7.38365 9.29263 7.78106 10.068C7.46758 10.2845 7.23015 10.5942 7.10237 10.9531C6.97459 11.3121 6.96294 11.7021 7.06906 12.068C6.42048 12.1711 5.80246 12.4155 5.25867 12.7837C4.71489 13.1519 4.2586 13.6351 3.92206 14.199L2.32206 16.882C2.19206 16.921 2.06106 16.957 1.93206 17C1.46003 17.1563 1.03777 17.4348 0.708153 17.8071C0.378531 18.1793 0.153284 18.6322 0.0552789 19.1197C-0.0427259 19.6072 -0.00999823 20.1119 0.150139 20.5827C0.310277 21.0534 0.592121 21.4734 0.96706 21.8C0.673544 21.9765 0.43046 22.2256 0.261256 22.5234C0.0920525 22.8212 0.00243883 23.1575 0.00105958 23.5V25.5C0.000920212 25.7816 0.0602643 26.0601 0.175207 26.3172C0.290149 26.5744 0.458099 26.8043 0.66806 26.992L1.33406 26.246C1.22917 26.1521 1.14529 26.0371 1.0879 25.9086C1.03052 25.78 1.00093 25.6408 1.00106 25.5V23.5C1.00106 23.2348 1.10642 22.9804 1.29395 22.7929C1.48149 22.6054 1.73584 22.5 2.00106 22.5H27.9911C28.2563 22.5 28.5106 22.6054 28.6982 22.7929C28.8857 22.9804 28.9911 23.2348 28.9911 23.5V25.5C28.9911 25.7652 28.8857 26.0196 28.6982 26.2071C28.5106 26.3946 28.2563 26.5 27.9911 26.5H10.0001V27.5H27.9941C28.5245 27.5 29.0332 27.2893 29.4083 26.9142C29.7833 26.5391 29.9941 26.0304 29.9941 25.5V23.5C29.9927 23.1465 29.8974 22.7996 29.7178 22.4951C29.5382 22.1905 29.2808 21.9393 28.9721 21.767C29.294 21.4835 29.5516 21.1345 29.7277 20.7434C29.9038 20.3522 29.9942 19.928 29.9931 19.499V19.499ZM25.2351 14.64L26.4271 16.553L21.1741 17.008L19.2971 15.6C19.2105 15.5351 19.1052 15.5 18.9971 15.5H18.7711C19.1919 14.8894 19.4804 14.1976 19.6181 13.469C19.6471 13.318 19.6711 13.161 19.6911 13.001H22.2311C22.8286 12.9996 23.4169 13.1491 23.9413 13.4356C24.4658 13.7221 24.9094 14.1364 25.2311 14.64H25.2351ZM19.0441 6.74001L19.4191 7.54001C19.4996 7.71301 19.5165 7.90889 19.4667 8.09312C19.417 8.27735 19.3038 8.43809 19.1471 8.54701C19.1121 8.45601 19.0851 8.36001 19.0471 8.27201L18.2091 6.28801C18.3789 6.26576 18.5513 6.29804 18.7016 6.38018C18.8518 6.46232 18.9721 6.59007 19.0451 6.74501L19.0441 6.74001ZM16.9131 5.78901L18.1281 8.66601C18.231 8.90433 18.3202 9.14841 18.3951 9.39701C18.7078 10.3897 18.8243 11.4338 18.7381 12.471C18.721 12.7461 18.6877 13.0199 18.6381 13.291C18.5113 13.9756 18.2219 14.6197 17.7941 15.169C17.697 15.2894 17.5907 15.4021 17.4761 15.506L13.0341 15.55C12.0248 14.9246 11.1668 14.0831 10.5221 13.086C10.3802 12.8718 10.2501 12.6502 10.1321 12.422L8.69406 9.65501C8.36001 9.01855 8.1847 8.3108 8.18306 7.59201L8.54506 7.72201L8.88406 6.78201L8.29806 6.57101C8.366 6.26126 8.46657 5.95957 8.59806 5.67101L9.72306 6.42101L10.2781 5.58901L9.10806 4.80901C9.44856 4.35936 9.87056 3.97773 10.3521 3.68401L11.0521 5.18401L11.9521 4.75801L11.2471 3.25801C11.7613 3.08149 12.3037 3.00115 12.8471 3.02101L12.5051 4.38901L13.4741 4.63101L13.8431 3.15401C14.1694 3.23726 14.4852 3.35772 14.7841 3.51301L14.5711 4.10501L15.5111 4.44401L15.6411 4.08401C16.1949 4.54287 16.631 5.12744 16.9131 5.78901ZM8.25106 10.969L9.25106 12.884C9.29906 12.975 9.34506 13.058 9.38906 13.137C9.20523 13.1882 9.00917 13.172 8.83625 13.0913C8.66332 13.0106 8.52494 12.8708 8.44606 12.697L8.07206 11.91C7.99966 11.7542 7.97799 11.5795 8.0101 11.4107C8.04222 11.2419 8.1265 11.0874 8.25106 10.969ZM10.5001 1.01001C10.8553 1.01114 11.2039 1.10688 11.5099 1.28738C11.8158 1.46788 12.0682 1.72662 12.2411 2.03701C10.8722 2.15177 9.59584 2.77461 8.66306 3.78301C8.53219 3.47981 8.47899 3.14877 8.50828 2.81983C8.53756 2.4909 8.64841 2.17446 8.83079 1.89915C9.01317 1.62385 9.26132 1.39837 9.55279 1.24311C9.84425 1.08786 10.1698 1.00774 10.5001 1.01001V1.01001ZM4.78306 14.699C5.06943 14.2246 5.46452 13.8251 5.93573 13.5335C6.40693 13.2419 6.94073 13.0666 7.49306 13.022L7.53906 13.122C7.63837 13.337 7.77915 13.5303 7.95332 13.6909C8.12749 13.8514 8.33162 13.9759 8.55402 14.0574C8.77643 14.1389 9.01272 14.1757 9.24936 14.1657C9.48601 14.1556 9.71834 14.099 9.93306 13.999L9.94706 13.993C10.4013 14.6279 10.9357 15.2013 11.5371 15.699L4.93206 16.359C4.51506 16.401 4.10006 16.466 3.68706 16.546L4.78306 14.699ZM2.25006 17.948C3.15225 17.6478 4.08495 17.4486 5.03106 17.354L13.4991 16.505H18.8311L19.7311 17.181L13.9311 18.009C13.8969 18.0142 13.8634 18.0229 13.8311 18.035L4.41306 21.499H2.82206C2.38923 21.4985 1.97067 21.3442 1.64119 21.0635C1.31171 20.7828 1.09279 20.3941 1.02354 19.9668C0.954297 19.5396 1.03924 19.1016 1.2632 18.7312C1.48716 18.3608 1.83553 18.0822 2.24606 17.945L2.25006 17.948ZM27.0441 21.499H26.0161L14.5421 20.485C14.4744 20.4789 14.4062 20.4874 14.3421 20.51L11.4221 21.499H7.30306L14.1221 18.99L20.5941 18.066L26.9441 17.504H27.0391C27.1092 17.5037 27.1794 17.5077 27.2491 17.516C27.7531 17.5755 28.2157 17.8244 28.5431 18.2123C28.8705 18.6002 29.0381 19.098 29.012 19.6049C28.9859 20.1118 28.7681 20.5899 28.4027 20.9421C28.0373 21.2944 27.5516 21.4945 27.0441 21.502V21.499Z"
      />
      <path
        d="M10.3341 11.207L10.9611 11.986C11.5027 11.5515 12.1399 11.2519 12.8201 11.112L12.6201 10.133C11.7838 10.3048 11.0002 10.6729 10.3341 11.207Z"
      />
      <path
        d="M15.282 12.795C14.9268 12.9624 14.5406 13.0544 14.148 13.065H14.066L14.089 14.065H14.171C15.0386 14.0419 15.873 13.7265 16.539 13.17L15.898 12.404C15.7104 12.5603 15.5034 12.6918 15.282 12.795Z"
      />
      <path
        d="M12.4441 9.78301L12.7271 8.82401C12.0659 8.61187 11.3489 8.65865 10.7209 8.95492C10.0929 9.25118 9.60083 9.77483 9.34412 10.42L10.2701 10.796C10.4321 10.3796 10.7487 10.0418 11.1537 9.85302C11.5588 9.66429 12.021 9.63921 12.4441 9.78301Z"
      />
      <path
        d="M13.7051 8.36399L14.6231 8.758C14.7834 8.3424 15.0973 8.00433 15.4999 7.81373C15.9025 7.62313 16.363 7.59458 16.7861 7.734L17.0861 6.78099C16.4268 6.56817 15.7114 6.61317 15.084 6.90692C14.4565 7.20068 13.9638 7.72135 13.7051 8.36399Z"
      />
      <path
        d="M13.1111 9.53302L14.0159 9.10713L15.3204 11.8784L14.4156 12.3043L13.1111 9.53302Z"
      />
      <path
        d="M15.432 9.95001C15.9737 9.5156 16.6109 9.21604 17.291 9.076L17.091 8.09702C16.2533 8.26816 15.4683 8.6363 14.801 9.17101L15.432 9.95001Z"
      />
      <path
        d="M8.77508 25.55C8.66334 25.3703 8.51692 25.2147 8.34436 25.0923C8.1718 24.9699 7.97657 24.8831 7.77008 24.837C7.5247 24.7802 7.27163 24.7643 7.02108 24.79C7.01508 24.758 7.00908 24.726 7.00108 24.69C6.95077 24.4868 6.85956 24.296 6.73301 24.1292C6.60647 23.9624 6.44725 23.8232 6.26508 23.72C5.91067 23.5124 5.49041 23.448 5.0901 23.5398C4.68979 23.6316 4.33962 23.8727 4.11108 24.214C3.98743 24.4084 3.89781 24.6225 3.84608 24.847C3.62211 24.8092 3.39266 24.8195 3.173 24.8773C2.95334 24.935 2.74849 25.0389 2.57207 25.182L2.55608 25.194C2.39803 25.3201 2.2677 25.4775 2.17324 25.6562C2.07877 25.835 2.02221 26.0314 2.00708 26.233C1.99172 26.4329 2.01791 26.6339 2.08399 26.8232C2.15008 27.0125 2.25463 27.1861 2.39107 27.333L2.44408 27.391C2.59489 27.5555 2.77072 27.6952 2.96508 27.805C2.86748 28.0009 2.81494 28.2162 2.81131 28.4351C2.80767 28.654 2.85304 28.8709 2.94408 29.07C3.12068 29.4406 3.43061 29.7309 3.81195 29.8829C4.19329 30.0349 4.61795 30.0374 5.00108 29.89C5.2276 29.8022 5.43784 29.6772 5.62308 29.52C5.77451 29.6721 5.95449 29.7928 6.1527 29.8752C6.35091 29.9575 6.56343 30 6.77808 30C6.81608 30 6.85441 30 6.89308 30C7.10278 29.987 7.30768 29.9317 7.4955 29.8375C7.68332 29.7434 7.85018 29.6122 7.98608 29.452C8.11462 29.3012 8.2115 29.1262 8.27094 28.9372C8.33039 28.7482 8.35118 28.5492 8.33208 28.352C8.30927 28.1199 8.24739 27.8934 8.14907 27.682C8.35043 27.5866 8.52781 27.4472 8.66816 27.2741C8.80852 27.101 8.90827 26.8987 8.96007 26.682C9.00645 26.4905 9.01398 26.2917 8.9822 26.0973C8.95043 25.9028 8.88 25.7167 8.77508 25.55ZM7.54507 25.811C7.62282 25.8278 7.69645 25.8598 7.76168 25.9053C7.82692 25.9508 7.88246 26.0088 7.92508 26.076C7.95944 26.1299 7.98271 26.1901 7.99353 26.2531C8.00435 26.3161 8.00249 26.3807 7.98807 26.443C7.95446 26.5567 7.88456 26.6563 7.78904 26.7265C7.69351 26.7968 7.57763 26.8338 7.45908 26.832C7.09218 26.5617 6.65246 26.408 6.19707 26.391C6.32592 26.1588 6.52815 25.9759 6.77208 25.8709C7.01602 25.766 7.28788 25.7449 7.54507 25.811ZM4.95507 24.753C5.04484 24.6293 5.17772 24.5437 5.32749 24.5132C5.47725 24.4826 5.63303 24.5093 5.76408 24.588C5.8294 24.6241 5.88668 24.6731 5.93241 24.7321C5.97815 24.7911 6.01138 24.8587 6.03007 24.931C6.04452 24.9969 6.04452 25.0651 6.03007 25.131C5.65443 25.3714 5.36647 25.7267 5.20908 26.144C5.0177 25.9917 4.88143 25.781 4.82108 25.544C4.78843 25.41 4.78348 25.2707 4.80652 25.1347C4.82956 24.9987 4.88011 24.8688 4.95507 24.753ZM3.00408 26.31C3.00978 26.2443 3.02897 26.1804 3.06046 26.1224C3.09195 26.0644 3.13505 26.0136 3.18708 25.973L3.20308 25.961C3.29956 25.8845 3.41696 25.8391 3.53978 25.8307C3.6626 25.8223 3.78508 25.8514 3.89107 25.914C4.02403 26.3344 4.28481 26.7028 4.63708 26.968C4.39991 27.0886 4.1301 27.1293 3.86789 27.0841C3.60569 27.0389 3.36512 26.9101 3.18208 26.717L3.12908 26.659C3.08532 26.6126 3.05163 26.5576 3.03012 26.4975C3.00861 26.4375 2.99975 26.3736 3.00408 26.31ZM4.63908 28.958C4.49445 29.014 4.33418 29.0143 4.18934 28.9589C4.04449 28.9035 3.92538 28.7962 3.85508 28.658C3.81112 28.563 3.79994 28.456 3.82329 28.354C3.84663 28.2519 3.90318 28.1605 3.98408 28.094H4.07907C4.5192 28.0955 4.94994 27.9667 5.31708 27.724C5.36833 27.9319 5.35222 28.1508 5.27108 28.349C5.21317 28.4884 5.12717 28.6145 5.01844 28.7193C4.90971 28.824 4.78058 28.9053 4.63908 28.958ZM7.22308 28.803C7.17337 28.8616 7.1123 28.9096 7.04355 28.9439C6.9748 28.9783 6.8998 28.9984 6.82307 29.003C6.70058 29.0125 6.57803 28.9852 6.47114 28.9246C6.36424 28.8641 6.27787 28.773 6.22308 28.663C6.37222 28.2584 6.3866 27.8164 6.26408 27.403C6.5343 27.4297 6.78745 27.5474 6.98216 27.7367C7.17688 27.9259 7.30164 28.1756 7.33607 28.445C7.34244 28.5099 7.33563 28.5754 7.31604 28.6376C7.29645 28.6998 7.26449 28.7575 7.22208 28.807L7.22308 28.803Z"
      />
    </svg>
