<svg width="5" height="6" viewBox="0 0 5 6" fill="auto" xmlns="http://www.w3.org/2000/svg">
<path fill-rule="evenodd" clip-rule="evenodd" d="M0.0811807 5.35551C-0.0270602 5.46375 -0.0270602 5.63924 0.0811807 5.74748C0.189422 5.85572 0.364915 5.85572 0.473156 5.74748L2.45492 3.76572L4.43668 5.74748C4.54492 5.85572 4.72042 5.85572 4.82866 5.74748C4.9369 5.63924 4.9369 5.46375 4.82866 5.35551L2.84689 3.37374L4.82866 1.39198C4.9369 1.28374 4.9369 1.10824 4.82866 1C4.72042 0.891763 4.54492 0.891763 4.43668 1L2.45492 2.98177L0.473156 1C0.364915 0.891763 0.189422 0.891763 0.0811807 1C-0.0270602 1.10824 -0.0270602 1.28374 0.0811807 1.39198L2.06294 3.37374L0.0811807 5.35551Z" fill="auto"/>
</svg>
