
        <svg width="50" height="33" viewBox="0 0 50 33" fill="auto">
            <path d="M23.0918 5.41772C24.9012 5.41772 26.5201 6.15044 27.7263 7.32915C28.9008 8.50786 29.6309 10.1644 29.6309 11.9803C29.6309 13.7961 28.9008 15.4208 27.7263 16.6314C27.1867 17.173 26.5518 17.619 25.8535 17.9376C27.6946 18.4473 29.377 19.403 30.7102 20.741C32.6783 22.7161 33.8845 25.424 33.8845 28.3867V29.6928C33.8845 30.3618 33.5988 30.9352 33.1862 31.3812C32.7418 31.8272 32.1704 32.0821 31.5038 32.0821H14.6798C14.0132 32.0821 13.4418 31.7954 12.9974 31.3812L12.9657 31.3494C12.553 30.9352 12.2991 30.3618 12.2991 29.7247V28.4185C12.2991 25.4558 13.5053 22.748 15.4734 20.7728C16.8066 19.4348 18.4573 18.4473 20.3301 17.9694C19.6318 17.6508 18.9969 17.2048 18.489 16.6633C17.3145 15.4846 16.5844 13.828 16.5844 12.0121C16.5844 10.1963 17.3145 8.57158 18.489 7.36101C19.6635 6.15044 21.2824 5.41772 23.0918 5.41772ZM29.6944 21.7604C28.012 20.072 25.663 19.0207 23.1235 19.0207C20.5523 19.0207 18.2351 20.072 16.5209 21.7604C14.8068 23.4488 13.791 25.8063 13.791 28.3867V29.6928C13.791 29.9477 13.8862 30.1707 14.045 30.33L14.0767 30.3618C14.2354 30.5211 14.4894 30.6485 14.7433 30.6485H31.5355C31.7895 30.6485 32.0434 30.553 32.2021 30.3618C32.3608 30.2025 32.4878 29.9795 32.4878 29.6928V28.3867C32.4243 25.8063 31.3768 23.4488 29.6944 21.7604ZM26.7105 8.34858C25.79 7.42472 24.5202 6.85129 23.0918 6.85129C21.6633 6.85129 20.3936 7.42472 19.4731 8.34858C18.5525 9.27243 17.9811 10.5467 17.9811 11.9803C17.9811 13.4139 18.5525 14.6563 19.4731 15.612C20.3936 16.5358 21.6633 17.1093 23.0918 17.1093C24.4885 17.1093 25.7582 16.5358 26.7105 15.612C27.6311 14.6881 28.2025 13.4139 28.2025 11.9803C28.2025 10.5467 27.6311 9.27243 26.7105 8.34858Z" fill="auto" />
            <path d="M40.8522 12.4156L40.8514 12.4148C39.9765 11.5744 38.8014 11.0514 37.488 11.0514C36.1747 11.0514 34.9988 11.5744 34.1458 12.4387C33.2938 13.3019 32.7633 14.4616 32.7633 15.7583C32.7633 17.054 33.2931 18.2362 34.1457 19.0778C34.467 19.4144 34.8574 19.6988 35.2864 19.9167C34.0218 20.2734 32.9049 20.9495 31.9941 21.8481C30.5749 23.2481 29.7045 25.1682 29.7045 27.2695V28.1859C29.7045 28.6551 29.8949 29.0777 30.2041 29.3828L30.2268 29.4052L30.2268 29.4052L30.2289 29.4072C30.5577 29.7084 30.9841 29.92 31.4838 29.92H43.4922C43.9897 29.92 44.4176 29.7324 44.7493 29.4052L44.7493 29.4052L44.7513 29.403C45.0566 29.0787 45.2716 28.6576 45.2716 28.1635V27.2471C45.2716 25.1458 44.4011 23.2257 42.982 21.8257C42.0696 20.9256 40.9313 20.2701 39.6846 19.8969C40.1163 19.6785 40.5106 19.3933 40.8522 19.0563L40.853 19.0555C41.7049 18.1924 42.2355 17.0326 42.2355 15.7359C42.2355 14.4398 41.7053 13.2572 40.8522 12.4156ZM43.9345 28.576L43.9342 28.5757L43.9295 28.5813C43.8349 28.6934 43.6784 28.7541 43.5149 28.7541H31.5292C31.372 28.7541 31.2102 28.6752 31.1096 28.576L31.0869 28.5536C30.9892 28.4572 30.9295 28.3215 30.9295 28.1635V27.2471C30.9295 25.4583 31.6457 23.825 32.8536 22.6554C34.0631 21.4843 35.6975 20.7557 37.5107 20.7557C39.3015 20.7557 40.9582 21.4845 42.1446 22.6549C43.3306 23.8249 44.0695 25.4589 44.1146 27.2481V28.1635C44.1146 28.3385 44.0363 28.4755 43.9345 28.576ZM37.488 12.2173C38.486 12.2173 39.3722 12.6109 40.0148 13.2448C40.6573 13.8786 41.0558 14.7524 41.0558 15.7359C41.0558 16.7192 40.6575 17.5928 40.0152 18.2266C39.3493 18.8614 38.4626 19.2545 37.488 19.2545C36.4903 19.2545 35.6043 18.8611 34.9618 18.2275C34.3181 17.5704 33.9202 16.7184 33.9202 15.7359C33.9202 14.7524 34.3188 13.8786 34.9613 13.2448C35.6038 12.6109 36.4901 12.2173 37.488 12.2173Z" fill="auto" stroke="auto" strokeWidth="0.160067" />
            <path d="M34.5235 28.9078C34.5235 25.8815 33.635 22.4117 31.7092 20.7609L27.8574 21.8614L28.6828 31.2156L34.1853 31.7659C34.1853 31.8576 34.5235 31.3289 34.5235 28.9078Z" fill="auto" />
            <path d="M23.0918 5.41772C24.9012 5.41772 26.5201 6.15044 27.7263 7.32915C28.9008 8.50786 29.6309 10.1644 29.6309 11.9803C29.6309 13.7961 28.9008 15.4208 27.7263 16.6314C27.1867 17.173 26.5518 17.619 25.8535 17.9376C27.6946 18.4473 29.377 19.403 30.7102 20.741C32.6783 22.7161 33.8845 25.424 33.8845 28.3867V29.6928C33.8845 30.3618 33.5988 30.9352 33.1862 31.3812C32.7418 31.8272 32.1704 32.0821 31.5038 32.0821H14.6798C14.0132 32.0821 13.4418 31.7954 12.9974 31.3812L12.9657 31.3494C12.553 30.9352 12.2991 30.3618 12.2991 29.7247V28.4185C12.2991 25.4558 13.5053 22.748 15.4734 20.7728C16.8066 19.4348 18.4573 18.4473 20.3301 17.9694C19.6318 17.6508 18.9969 17.2048 18.489 16.6633C17.3145 15.4846 16.5844 13.828 16.5844 12.0121C16.5844 10.1963 17.3145 8.57158 18.489 7.36101C19.6635 6.15044 21.2824 5.41772 23.0918 5.41772ZM29.6944 21.7604C28.012 20.072 25.663 19.0207 23.1235 19.0207C20.5523 19.0207 18.2351 20.072 16.5209 21.7604C14.8068 23.4488 13.791 25.8063 13.791 28.3867V29.6928C13.791 29.9477 13.8862 30.1707 14.045 30.33L14.0767 30.3618C14.2354 30.5211 14.4894 30.6485 14.7433 30.6485H31.5355C31.7895 30.6485 32.0434 30.553 32.2021 30.3618C32.3608 30.2025 32.4878 29.9795 32.4878 29.6928V28.3867C32.4243 25.8063 31.3768 23.4488 29.6944 21.7604ZM26.7105 8.34858C25.79 7.42472 24.5202 6.85129 23.0918 6.85129C21.6633 6.85129 20.3936 7.42472 19.4731 8.34858C18.5525 9.27243 17.9811 10.5467 17.9811 11.9803C17.9811 13.4139 18.5525 14.6563 19.4731 15.612C20.3936 16.5358 21.6633 17.1093 23.0918 17.1093C24.4885 17.1093 25.7582 16.5358 26.7105 15.612C27.6311 14.6881 28.2025 13.4139 28.2025 11.9803C28.2025 10.5467 27.6311 9.27243 26.7105 8.34858Z" fill="auto" />
            <path d="M40.8489 12.4156L40.8482 12.4148C39.9732 11.5744 38.7982 11.0514 37.4847 11.0514C36.1714 11.0514 34.9955 11.5744 34.1425 12.4387C33.2905 13.3019 32.76 14.4616 32.76 15.7583C32.76 17.054 33.2898 18.2362 34.1424 19.0778C34.4637 19.4144 34.8541 19.6988 35.2831 19.9167C34.0185 20.2734 32.9016 20.9495 31.9908 21.8481C30.5716 23.2481 29.7012 25.1682 29.7012 27.2695V28.1859C29.7012 28.6551 29.8916 29.0777 30.2008 29.3828L30.2235 29.4052L30.2235 29.4052L30.2257 29.4072C30.5544 29.7084 30.9808 29.92 31.4805 29.92H43.4889C43.9864 29.92 44.4143 29.7324 44.746 29.4052L44.746 29.4052L44.748 29.403C45.0533 29.0787 45.2683 28.6576 45.2683 28.1635V27.2471C45.2683 25.1458 44.3978 23.2257 42.9787 21.8257C42.0663 20.9256 40.928 20.2701 39.6813 19.8969C40.113 19.6785 40.5073 19.3933 40.8489 19.0563L40.8497 19.0555C41.7016 18.1924 42.2322 17.0326 42.2322 15.7359C42.2322 14.4398 41.702 13.2572 40.8489 12.4156ZM43.9312 28.576L43.931 28.5757L43.9263 28.5813C43.8316 28.6934 43.6751 28.7541 43.5116 28.7541H31.5259C31.3687 28.7541 31.2069 28.6752 31.1063 28.576L31.0836 28.5536C30.9859 28.4572 30.9262 28.3215 30.9262 28.1635V27.2471C30.9262 25.4583 31.6424 23.825 32.8503 22.6554C34.0598 21.4843 35.6942 20.7557 37.5074 20.7557C39.2982 20.7557 40.9549 21.4845 42.1413 22.6549C43.3273 23.8249 44.0662 25.4589 44.1113 27.2481V28.1635C44.1113 28.3385 44.033 28.4755 43.9312 28.576ZM37.4847 12.2173C38.4827 12.2173 39.3689 12.6109 40.0115 13.2448C40.654 13.8786 41.0525 14.7524 41.0525 15.7359C41.0525 16.7192 40.6542 17.5928 40.012 18.2266C39.346 18.8614 38.4593 19.2545 37.4847 19.2545C36.487 19.2545 35.601 18.8611 34.9585 18.2275C34.3148 17.5704 33.9169 16.7184 33.9169 15.7359C33.9169 14.7524 34.3155 13.8786 34.958 13.2448C35.6005 12.6109 36.4868 12.2173 37.4847 12.2173Z" fill="auto" stroke="auto" strokeWidth="0.160067" />
            <path d="M34.5202 28.9077C34.5202 25.8813 33.6317 22.4115 31.7059 20.7608L27.8541 21.8613L28.6795 31.2155L34.182 31.7658C34.182 31.8575 34.5202 31.3288 34.5202 28.9077Z" fill="auto" />
            <path d="M5.33944 12.4156L5.3402 12.4148C6.21514 11.5744 7.3902 11.0514 8.70362 11.0514C10.017 11.0514 11.1929 11.5744 12.0459 12.4387C12.8978 13.3019 13.4284 14.4616 13.4284 15.7583C13.4284 17.054 12.8986 18.2362 12.046 19.0778C11.7246 19.4144 11.3343 19.6988 10.9053 19.9167C12.1698 20.2734 13.2868 20.9495 14.1976 21.8481C15.6167 23.2481 16.4871 25.1682 16.4871 27.2695V28.1859C16.4871 28.6551 16.2967 29.0777 15.9875 29.3828L15.9649 29.4052L15.9649 29.4052L15.9627 29.4072C15.6339 29.7084 15.2075 29.92 14.7078 29.92H2.69943C2.20194 29.92 1.77409 29.7324 1.44238 29.4052L1.44234 29.4052L1.44031 29.403C1.13502 29.0787 0.920094 28.6576 0.920094 28.1635V27.2471C0.920094 25.1458 1.79052 23.2257 3.20965 21.8257C4.12203 20.9256 5.26035 20.2701 6.50703 19.8969C6.07534 19.6785 5.68108 19.3933 5.33943 19.0563L5.33869 19.0555C4.48675 18.1924 3.95617 17.0326 3.95617 15.7359C3.95617 14.4398 4.48635 13.2572 5.33944 12.4156ZM2.25717 28.576L2.2574 28.5757L2.2621 28.5813C2.35679 28.6934 2.51325 28.7541 2.67677 28.7541H14.6625C14.8197 28.7541 14.9815 28.6752 15.0821 28.576L15.1047 28.5536C15.2024 28.4572 15.2622 28.3215 15.2622 28.1635V27.2471C15.2622 25.4583 14.546 23.825 13.338 22.6554C12.1285 21.4843 10.4942 20.7557 8.68096 20.7557C6.89015 20.7557 5.23349 21.4845 4.0471 22.6549C2.8611 23.8249 2.12212 25.4589 2.07708 27.2481V28.1635C2.07708 28.3385 2.15534 28.4755 2.25717 28.576ZM8.70362 12.2173C7.70568 12.2173 6.81941 12.6109 6.17689 13.2448C5.53439 13.8786 5.13582 14.7524 5.13582 15.7359C5.13582 16.7192 5.53419 17.5928 6.1764 18.2266C6.84234 18.8614 7.72905 19.2545 8.70362 19.2545C9.70131 19.2545 10.5874 18.8611 11.2299 18.2275C11.8736 17.5704 12.2714 16.7184 12.2714 15.7359C12.2714 14.7524 11.8728 13.8786 11.2303 13.2448C10.5878 12.6109 9.70156 12.2173 8.70362 12.2173Z" fill="auto" stroke="auto" strokeWidth="0.160067" />
            <path d="M11.6652 28.5903C11.6652 25.5639 12.5537 22.4115 14.4796 20.7608L18.3313 21.8613L17.5059 31.2155L12.0034 31.7658C12.0034 31.8575 11.6652 31.0114 11.6652 28.5903Z" fill="auto" />
            <path d="M23.0914 5.41772C24.9008 5.41772 26.5197 6.15044 27.726 7.32915C28.9005 8.50786 29.6306 10.1644 29.6306 11.9803C29.6306 13.7961 28.9005 15.4208 27.726 16.6314C27.1863 17.173 26.5515 17.619 25.8531 17.9376C27.6942 18.4473 29.3766 19.403 30.7098 20.741C32.6779 22.7161 33.8842 25.424 33.8842 28.3867V29.6928C33.8842 30.3618 33.5985 30.9352 33.1858 31.3812C32.7414 31.8272 32.17 32.0821 31.5034 32.0821H14.6795C14.0128 32.0821 13.4415 31.7954 12.9971 31.3812L12.9653 31.3494C12.5527 30.9352 12.2987 30.3618 12.2987 29.7247V28.4185C12.2987 25.4558 13.505 22.748 15.473 20.7728C16.8063 19.4348 18.4569 18.4473 20.3298 17.9694C19.6314 17.6508 18.9965 17.2048 18.4887 16.6633C17.3141 15.4846 16.5841 13.828 16.5841 12.0121C16.5841 10.1963 17.3141 8.57158 18.4887 7.36101C19.6632 6.15044 21.2821 5.41772 23.0914 5.41772ZM29.694 21.7604C28.0116 20.072 25.6626 19.0207 23.1232 19.0207C20.552 19.0207 18.2347 20.072 16.5206 21.7604C14.8064 23.4488 13.7906 25.8063 13.7906 28.3867V29.6928C13.7906 29.9477 13.8859 30.1707 14.0446 30.33L14.0763 30.3618C14.235 30.5211 14.489 30.6485 14.7429 30.6485H31.5351C31.7891 30.6485 32.043 30.553 32.2018 30.3618C32.3605 30.2025 32.4874 29.9795 32.4874 29.6928V28.3867C32.424 25.8063 31.3764 23.4488 29.694 21.7604ZM26.7102 8.34858C25.7896 7.42472 24.5199 6.85129 23.0914 6.85129C21.663 6.85129 20.3932 7.42472 19.4727 8.34858C18.5521 9.27243 17.9808 10.5467 17.9808 11.9803C17.9808 13.4139 18.5521 14.6563 19.4727 15.612C20.3932 16.5358 21.663 17.1093 23.0914 17.1093C24.4881 17.1093 25.7579 16.5358 26.7102 15.612C27.6307 14.6881 28.2021 13.4139 28.2021 11.9803C28.2021 10.5467 27.6307 9.27243 26.7102 8.34858Z" fill="auto" />
            <circle cx="43.5751" cy="9.7459" r="5.85779" fill="auto" />
            <path d="M46.4588 9.59344H44.3583V11.7149H43.1925V9.59344H41.1026V8.49068H43.1925V6.35868H44.3583V8.49068H46.4588V9.59344Z" fill="auto" />
        </svg>
