
    <svg
      width="21"
      height="19"
      viewBox="0 0 21 19"
      fill="auto"     
    >
      <path
        d="M7.38153 0.8432H7.38243L7.38992 0.843248H7.39037H7.4066H7.42357H7.44054H7.44888H7.45722C7.47828 0.843248 7.50089 0.8472 7.52293 0.856584C7.53277 0.859035 7.54472 0.862951 7.55751 0.869348C7.55932 0.870251 7.56116 0.871216 7.56304 0.872246C7.58066 0.87803 7.59476 0.884592 7.60347 0.888944L13.586 2.95962L19.6275 0.872168C19.6441 0.863906 19.6826 0.846473 19.7278 0.843639C19.8436 0.831533 19.9516 0.875293 20.0289 0.942186C20.1077 1.01037 20.1678 1.11422 20.1678 1.23482L20.1677 15.5623C20.1677 15.7401 20.0392 15.8846 19.8943 15.9363L19.8928 15.9369L13.7723 18.0538L13.7648 18.0564C13.7624 18.0574 13.7596 18.0586 13.7565 18.0597C13.7512 18.0617 13.7438 18.0642 13.7346 18.0663L13.7286 18.0683L13.7231 18.071C13.6725 18.0959 13.6246 18.0956 13.6123 18.0956L13.611 18.0956H13.5773L13.5759 18.0956C13.5688 18.0956 13.5499 18.0957 13.5308 18.093C13.5226 18.0918 13.5073 18.0893 13.4891 18.0826C13.4743 18.0793 13.4572 18.0737 13.4398 18.0641L7.41484 15.9795L1.36333 18.0704L7.38153 0.8432ZM7.38153 0.8432C7.33998 0.8432 7.30453 0.853273 7.28243 0.860571C7.27099 0.86435 7.26049 0.868318 7.2534 0.870998L7.25335 0.87102L7.23937 0.876172L7.23936 0.876154M7.38153 0.8432L7.23936 0.876154M7.23936 0.876154L7.23704 0.876959M7.23936 0.876154L7.23704 0.876959M7.23704 0.876959L1.10813 3.00224L1.10812 3.00223M7.23704 0.876959L1.10812 3.00223M1.10812 3.00223L1.10634 3.00287M1.10812 3.00223L1.10634 3.00287M1.10634 3.00287C0.953553 3.05791 0.84165 3.20714 0.84165 3.37673M1.10634 3.00287L0.84165 3.37673M0.84165 3.37673V17.704M0.84165 3.37673V17.704M0.84165 17.704C0.84165 17.8379 0.919171 17.9484 1.01017 18.0132M0.84165 17.704L1.01017 18.0132M1.01017 18.0132C1.10203 18.0786 1.2328 18.1157 1.363 18.0705L1.01017 18.0132ZM1.62982 3.64815L7.02089 1.79023V15.2742L1.62972 17.1478L1.62982 3.64815ZM7.80917 15.2824V1.79052L13.2003 3.65602V17.1482L7.80917 15.2824ZM13.9883 3.6481L19.3712 1.79033V15.2742L13.9882 17.1477L13.9883 3.6481Z"
        strokeWidth="0.6"
      />
    </svg>
