
        <svg width="17" height="24" viewBox="0 0 17 24" fill="auto">
            <path d="M8.58864 13.1019C9.73193 13.1019 10.8283 12.6478 11.637 11.8395C12.4455 11.0311 12.8997 9.93471 12.8998 8.79152C12.9 7.64823 12.4459 6.55161 11.6376 5.74319C10.8292 4.93468 9.73283 4.48035 8.58964 4.48019C7.44634 4.48004 6.34973 4.93407 5.54131 5.74235C4.73279 6.55064 4.27846 7.64709 4.27823 8.79029C4.2793 9.93329 4.73371 11.0292 5.54192 11.8376C6.35004 12.6459 7.44587 13.1006 8.58887 13.1019L8.58864 13.1019ZM8.58864 5.28386C9.28241 5.28386 9.96051 5.48955 10.5374 5.87494C11.1142 6.26038 11.5638 6.80818 11.8292 7.44908C12.0948 8.09004 12.1642 8.79533 12.0288 9.4757C11.8934 10.156 11.5593 10.781 11.0687 11.2715C10.5781 11.762 9.95305 12.096 9.27264 12.2313C8.59223 12.3665 7.88696 12.2969 7.24602 12.0313C6.60515 11.7657 6.05742 11.316 5.67211 10.7391C5.28689 10.1621 5.08136 9.48394 5.08151 8.79027C5.08281 7.8606 5.45277 6.96938 6.11021 6.31208C6.76765 5.65479 7.65895 5.28506 8.5886 5.2839L8.58864 5.28386ZM8.49365 22.2462C8.55606 22.2613 8.62122 22.2613 8.68363 22.2462C10.363 21.8372 12.4189 19.3257 13.7828 17.1115C15.5981 14.1644 16.6809 11.0541 16.6809 8.79021C16.6809 6.36182 15.8584 4.30005 14.3023 2.83009C12.8477 1.45554 10.8183 0.697998 8.58851 0.697998C6.35876 0.697998 4.32941 1.45562 2.8737 2.83106C1.31765 4.30175 0.4961 6.3628 0.4961 8.79041C0.4961 11.0534 1.57996 14.1636 3.3952 17.1108C4.75807 19.3253 6.81405 21.8372 8.49339 22.2464L8.49365 22.2462ZM8.58864 1.50154C12.9489 1.50154 15.8785 4.43111 15.8785 8.79138C15.8785 10.9116 14.8393 13.8644 13.0987 16.69C11.5569 19.193 9.7627 21.0769 8.58864 21.4394C7.41474 21.0777 5.62039 19.193 4.07856 16.69C2.33802 13.8644 1.29879 10.9121 1.29879 8.79041C1.29879 4.43111 4.22836 1.50154 8.58864 1.50154ZM17 21.6564C17 22.3294 16.1518 22.8107 14.3302 23.1712V23.1712C12.4351 23.5061 10.5129 23.664 8.58864 23.6431C6.66431 23.664 4.74225 23.5061 2.84708 23.1712C1.02558 22.8108 0.177277 22.3294 0.177277 21.6563C0.177277 20.9549 1.15279 20.6124 1.47354 20.5C2.38406 20.2119 3.32129 20.0163 4.27108 19.9162C4.37759 19.9015 4.48554 19.9301 4.57078 19.9956C4.65607 20.0611 4.71154 20.1581 4.72474 20.2647C4.73794 20.3715 4.7078 20.479 4.64104 20.5634C4.57436 20.6477 4.47662 20.7017 4.36973 20.7134C1.9181 21.0195 1.113 21.4851 0.989752 21.6561C1.0884 21.7908 1.62453 22.133 3.2277 22.4258H3.22763C4.99937 22.7176 6.79296 22.856 8.58852 22.8396C10.3838 22.856 12.1771 22.7176 13.9486 22.4258C15.5523 22.133 16.0887 21.7907 16.1866 21.6561C16.0632 21.4851 15.2589 21.0195 12.8066 20.7134H12.8065C12.6996 20.7017 12.6019 20.6477 12.5352 20.5634C12.4684 20.479 12.4384 20.3715 12.4516 20.2647C12.4648 20.1581 12.5202 20.0611 12.6055 19.9956C12.6908 19.9301 12.7987 19.9015 12.9053 19.9162C13.8552 20.0162 14.7927 20.2118 15.7036 20.5C16.0243 20.6125 16.9998 20.9539 16.9998 21.6563L17 21.6564Z" fill="auto" />
        </svg>
