
        <svg width="19" height="19" viewBox="0 0 19 19" fill="auto">
            <path d="M14.9947 13.6727L19 17.6768L17.6768 19L13.6727 14.9947C11.9918 16.3378 9.86044 16.9862 7.71635 16.8069C5.57226 16.6275 3.57824 15.634 2.1438 14.0303C0.709364 12.4267 -0.0565863 10.3347 0.00326041 8.18393C0.0631071 6.03319 0.944208 3.98699 2.4656 2.4656C3.98699 0.944208 6.03319 0.0631071 8.18393 0.00326041C10.3347 -0.0565863 12.4267 0.709364 14.0303 2.1438C15.634 3.57824 16.6275 5.57227 16.8069 7.71635C16.9862 9.86044 16.3378 11.9918 14.9947 13.6727ZM13.1185 12.98C14.321 11.7407 14.9848 10.0763 14.9652 8.34966C14.9457 6.62301 14.2444 4.97409 13.0142 3.76234C11.784 2.55058 10.1247 1.87425 8.3979 1.88077C6.67115 1.88729 5.01698 2.57612 3.79598 3.79713C2.57497 5.01814 1.88613 6.6723 1.87961 8.39905C1.8731 10.1258 2.54943 11.7851 3.76118 13.0153C4.97293 14.2455 6.62185 14.9468 8.34851 14.9664C10.0752 14.9859 11.7395 14.3221 12.9788 13.1197L13.1185 12.98Z" fill="auto" />
        </svg>
