
        <svg width="22" height="17" viewBox="0 0 22 17" fill="auto" xmlns="http://www.w3.org/2000/svg">
            <path fillRule="evenodd" clipRule="evenodd" d="M14.3403 12.7591C15.1557 11.486 15.7476 10.0383 15.7476 8.53436C15.7476 7.0304 15.1557 5.58266 14.3403 4.30958C13.5276 3.04071 12.5293 2.00231 11.8062 1.33451C11.5744 1.12043 11.2455 1.12043 11.0137 1.33451C10.2906 2.00233 9.29224 3.04076 8.47953 4.30958C7.66414 5.58268 7.07223 7.0304 7.07223 8.53436C7.07223 10.0383 7.66414 11.4861 8.47953 12.7591C9.29221 14.028 10.2906 15.0664 11.0137 15.7342C11.2455 15.9483 11.5744 15.9483 11.8062 15.7342C12.5292 15.0664 13.5276 14.028 14.3403 12.7591ZM13.6443 15.0978C15.056 13.507 16.6152 11.1564 16.6152 8.53436C16.6152 7.28349 16.2604 6.09462 15.7361 5.02027C16.0414 4.92529 16.3514 4.84441 16.6629 4.77618C18.1348 4.45357 19.575 4.42528 20.5585 4.46433C20.8738 4.4768 21.1064 4.7095 21.119 5.0248C21.158 6.00828 21.1296 7.44858 20.8071 8.92038C20.4834 10.3972 19.8783 11.8395 18.8149 12.9027C17.7514 13.966 16.3092 14.5713 14.8325 14.895C14.4313 14.9829 14.0324 15.049 13.6445 15.0978L13.6443 15.0978ZM12.7299 16.054C12.6131 16.1675 12.5011 16.2734 12.3949 16.3714C11.8307 16.8925 10.9892 16.8925 10.4251 16.3714C10.3183 16.2728 10.2055 16.1663 10.0881 16.0521L10.0901 16.054C7.97291 15.9223 5.23326 15.3578 3.39177 13.5161C0.946479 11.0711 0.752845 7.04271 0.834278 4.99024C0.864732 4.22283 1.45971 3.62784 2.22712 3.59739C3.50566 3.54661 5.55082 3.60264 7.5022 4.24316C7.35427 4.49456 7.21383 4.75383 7.08388 5.02015C6.77863 4.92517 6.46856 4.84429 6.15708 4.77606C4.68516 4.45345 3.24494 4.42516 2.2615 4.46421C1.9462 4.47668 1.71359 4.70939 1.70103 5.02469C1.66199 6.00817 1.69027 7.44846 2.01288 8.92026C2.33657 10.3971 2.94167 11.8393 4.00513 12.9026C5.06859 13.9658 6.5108 14.5712 7.98746 14.8949C8.3887 14.9828 8.78758 15.0488 9.17545 15.0976C7.7638 13.5069 6.20478 11.1563 6.20478 8.53421C6.20478 5.07633 8.91612 2.09086 10.4252 0.697018C10.9893 0.175965 11.8308 0.175965 12.395 0.697018C13.2228 1.46163 14.4125 2.70528 15.3178 4.24327C17.2693 3.60273 19.3145 3.54672 20.5929 3.5975C21.3603 3.62795 21.9553 4.22294 21.9857 4.99035C22.0672 7.04289 21.8734 11.0712 19.4282 13.5162C17.5867 15.3579 14.8469 15.9224 12.7299 16.0541L12.7299 16.054Z" fill="auto"/>
        </svg>
