
        <svg width="16" height="16" viewBox="0 0 16 16" fill="auto" xmlns="http://www.w3.org/2000/svg">
            <path fillRule="evenodd" clipRule="evenodd" d="M7.996 0C3.576 0 0 3.58 0 8C0 12.42 3.576 16 7.996 16C12.416 16 16 12.42 16 8C16 3.58 12.416 0 7.996 0ZM13.536 4.8H11.176C10.916 3.8 10.552 2.84 10.072 1.952C11.544 2.456 12.768 3.476 13.536 4.8ZM8 1.628C8.668 2.588 9.188 3.656 9.528 4.8H6.472C6.812 3.656 7.332 2.588 8 1.628ZM1.808 9.6C1.676 9.088 1.6 8.552 1.6 8C1.6 7.448 1.676 6.912 1.808 6.4H4.508C4.444 6.924 4.4 7.456 4.4 8C4.4 8.544 4.444 9.076 4.512 9.6H1.808ZM2.46 11.2H4.82C5.08 12.2 5.444 13.16 5.924 14.052C4.452 13.548 3.228 12.524 2.46 11.2ZM4.82 4.8H2.46C3.228 3.476 4.452 2.452 5.924 1.948C5.444 2.84 5.08 3.8 4.82 4.8ZM8 14.372C7.336 13.412 6.816 12.344 6.472 11.2H9.528C9.184 12.344 8.664 13.412 8 14.372ZM9.872 9.6H6.128C6.052 9.076 6 8.544 6 8C6 7.456 6.052 6.924 6.128 6.4H9.872C9.948 6.924 10 7.456 10 8C10 8.544 9.948 9.076 9.872 9.6ZM10.076 14.048C10.556 13.156 10.92 12.2 11.18 11.2H13.54C12.768 12.524 11.544 13.544 10.076 14.048ZM11.488 9.6C11.552 9.076 11.6 8.544 11.6 8C11.6 7.456 11.556 6.924 11.488 6.4H14.188C14.32 6.912 14.4 7.448 14.4 8C14.4 8.552 14.324 9.088 14.188 9.6H11.488Z" fill="auto" />
        </svg>
